# xmcd
#
# Track frame offsets:
#	150
#	17986
#	37923
#	54785
#	71383
#	89281
#	103190
#	127325
#	142773
#	158620
#	176220
#	196432
#	214024
#	229902
#	242968
#	259518
#	273288
#	285873
#	300332
#
# Disc length: 4178 seconds
# Revision: 0
# Processed by: cddbd v1.5.2PL0 Copyright (c) Steve Scherf et al.
# Submitted via: dBpowerAMP V12.0
#
DISCID=02105013
DTITLE=Rod McCormack - Fingerprints
DYEAR=2018
DGENRE=Bluegrass
TTITLE0=Shimmers
TTITLE1=Another Tinsel Town
TTITLE2=Brand New Friend
TTITLE3=covering Your Tracks
TTITLE4=Fingerprints
TTITLE5=Timeless Traveller
TTITLE6=Ballad of Willie Johnson
TTITLE7=It Takes Years
TTITLE8=Another Nail
TTITLE9=It Was Love
TTITLE10=Wherever You Go
TTITLE11=Double Rainbow
TTITLE12=One Teardrop Away
TTITLE13=I'm Still Here
TTITLE14=Winter Worn
TTITLE15=Better Than That
TTITLE16=Lock and Key
TTITLE17=Sweetwater
TTITLE18=Puttin' Out Fires
EXTD=
EXTT0=
EXTT1=
EXTT2=
EXTT3=
EXTT4=
EXTT5=
EXTT6=
EXTT7=
EXTT8=
EXTT9=
EXTT10=
EXTT11=
EXTT12=
EXTT13=
EXTT14=
EXTT15=
EXTT16=
EXTT17=
EXTT18=
PLAYORDER=
